<?xml version="1.0" encoding="UTF-8"?>
<svg version="1.1" xmlns="http://www.w3.org/2000/svg" width="600" height="150" viewBox="0 680 2500 600" preserveAspectRatio="xMidYMid meet">
<path d="M0 0 C660 0 1320 0 2000 0 C2000 660 2000 1320 2000 2000 C1340 2000 680 2000 0 2000 C0 134 0 0 680 0 0 Z " fill="none" transform="translate(100,0)"/>
<path d="M0 0 C2.42815114 0.02377897 4.85520724 0.02050058 7.28344727 0.01391602 C43.96787934 0.07838533 79.02126824 11.63656664 107.23071289 35.33618164 C107.9693457 35.92786133 108.70797852 36.51954102 109.46899414 37.12915039 C132.25244643 56.10861598 145.68235996 86.3696862 149.23071289 115.33618164 C149.34273157 117.99849219 149.41762867 120.63492725 149.43383789 123.29711914 C149.43953796 124.04595367 149.44523804 124.79478821 149.45111084 125.5663147 C149.46051034 127.14795546 149.46707459 128.72961535 149.47094727 130.3112793 C149.48054619 132.67021428 149.51157203 135.02823567 149.54321289 137.38696289 C149.64281887 151.44926509 147.99092192 165.05869167 143.10571289 178.33618164 C142.80640869 179.16448486 142.50710449 179.99278809 142.19873047 180.84619141 C133.33826521 204.53215814 117.20686755 227.16392992 95.23071289 240.33618164 C94.22266602 240.96524414 93.21461914 241.59430664 92.17602539 242.24243164 C52.23531465 266.22530645 3.52826766 271.32088978 -41.43725586 260.45336914 C-65.77975254 254.29656022 -87.7098222 242.8721838 -105.76928711 225.33618164 C-106.43959961 224.72774414 -107.10991211 224.11930664 -107.80053711 223.49243164 C-122.9780839 209.27853861 -132.22063285 190.0693656 -137.76928711 170.33618164 C-137.98101563 169.62558594 -138.19274414 168.91499023 -138.41088867 168.18286133 C-141.90805296 156.06194484 -142.16019378 143.91979168 -142.20678711 131.39868164 C-142.21305115 130.60303802 -142.21931519 129.80739441 -142.22576904 128.98764038 C-142.27550236 118.99214499 -141.42502061 110.03560574 -138.76928711 100.33618164 C-138.36538376 98.4420512 -137.96847839 96.54640077 -137.58178711 94.64868164 C-129.75068407 63.93290444 -107.55494437 38.0202631 -80.81616211 21.92602539 C-69.40426595 15.23591185 -57.64391222 10.0758819 -45.01928711 6.14868164 C-44.27066406 5.91060791 -43.52204102 5.67253418 -42.75073242 5.42724609 C-28.72340614 1.25328261 -14.57932894 -0.15200637 0 0 Z " fill="#FD65C3" transform="translate(1095.769287109375,837.663818359375)"/>
<path d="M0 0 C28.771875 -0.12375 57.54375 -0.2475 87.1875 -0.375 C96.23696045 -0.42962402 105.2864209 -0.48424805 114.61010742 -0.54052734 C125.75061035 -0.56762695 125.75061035 -0.56762695 130.98335266 -0.57266235 C134.60015936 -0.57820145 138.21642547 -0.60047855 141.83308411 -0.63345337 C172.1578946 -0.89761442 199.3857867 0.54656439 223 22 C224.33804687 23.19882812 224.33804687 23.19882812 225.703125 24.421875 C242.126185 39.92744562 254.97164103 63.04702779 256 86 C256.09474609 87.57394531 256.09474609 87.57394531 256.19140625 89.1796875 C256.97710507 113.15617412 248.04794706 136.46724218 232.4375 154.5 C224.7429811 162.61904408 215.67121465 168.44292845 205 172 C206.23363281 172.70962891 206.23363281 172.70962891 207.4921875 173.43359375 C224.37277333 183.43329413 235.77449681 195.84604076 242.25 214.625 C243.79626246 221.58318108 244.14788728 228.53243383 244.11352539 235.64086914 C244.11367142 236.45172974 244.11381744 237.26259033 244.1139679 238.09802246 C244.11327842 240.74376218 244.10553182 243.38942902 244.09765625 246.03515625 C244.09578864 247.88317323 244.09436635 249.73119072 244.09336853 251.57920837 C244.0895704 256.4173624 244.0797635 261.25548588 244.06866455 266.09362793 C244.05658241 271.91243611 244.05203531 277.73125456 244.04621124 283.55007172 C244.03655006 292.36673565 244.01737465 301.18333271 244 310 C221.23 310 198.46 310 175 310 C174.96261719 304.43640625 174.92523437 298.8728125 174.88671875 293.140625 C174.85640728 289.59502238 174.82523869 286.04946803 174.79101562 282.50390625 C174.7368946 276.88853529 174.68577764 271.2732598 174.65356445 265.65771484 C174.62736451 261.12526928 174.58684697 256.59314834 174.53681374 252.06090546 C174.52025702 250.34039122 174.50867361 248.61982099 174.50238609 246.89923859 C174.44095114 231.61893308 173.42448889 217.04921698 162 205.6875 C152.71527003 198.14081218 141.36321511 197.40140443 129.82421875 197.390625 C128.10410583 197.36718018 128.10410583 197.36718018 126.34924316 197.34326172 C122.12886781 197.29127392 117.90813556 197.2725021 113.6875 197.25 C104.220625 197.1675 94.75375 197.085 85 197 C85 177.86 85 158.72 85 139 C91.95513672 138.96132813 91.95513672 138.96132813 99.05078125 138.921875 C102.00851689 138.89667419 104.96615352 138.87031669 107.92382812 138.83984375 C112.60652896 138.79170641 117.28900027 138.7475884 121.97192383 138.72900391 C125.75235403 138.7137309 129.53217902 138.67910096 133.31233788 138.63169098 C134.7461842 138.61698578 136.18011699 138.6089653 137.61403847 138.60811615 C150.08062962 138.59332462 160.04748189 136.59800038 169.70703125 128.3359375 C177.5919567 120.30325365 182.0449532 110.82018743 182.375 99.625 C182.06132298 88.39797662 178.84649567 78.31857296 171.11328125 69.9609375 C145.10382468 45.94434695 96.18316456 57.34409069 69 57 C69 121.68 69 186.36 69 253 C46.23 253 23.46 253 0 253 C0 169.51 0 86.02 0 0 Z " fill="#FD65C2" transform="translate(1259,844)"/>
<path d="M0 0 C186.3124791 0 186.3124791 0 225.09765625 37.97265625 C248.94363796 62.33961503 259.75742405 95.54290532 260.3125 129.125 C260.1554039 135.87265149 259.20771816 142.37039819 258 149 C257.83564453 150.28003906 257.83564453 150.28003906 257.66796875 151.5859375 C254.20821187 176.29848662 239.76889747 199.21568487 223 217 C222.33742188 217.73863281 221.67484375 218.47726562 220.9921875 219.23828125 C200.76324352 240.89017376 170.48101562 251.89852261 141.38256836 253.15637207 C132.68173061 253.35020123 123.98254592 253.29131029 115.28076172 253.20599365 C111.73996633 253.17471126 108.19909932 253.16131194 104.65820312 253.14648438 C97.77177851 253.11639513 90.88646595 253.0576184 84 253 C84 233.86 84 214.72 84 195 C107.5 194.75 107.5 194.75 114.81054688 194.70214844 C136.11989486 194.43925268 153.58747249 191.32062254 169.3359375 175.85546875 C173.04474999 171.88018733 175.65923286 167.88894402 178 163 C178.44859375 162.08734375 178.8971875 161.1746875 179.359375 160.234375 C187.74356464 141.78915778 188.95494293 120.08888757 182 101 C175.56282475 84.53320724 164.41251818 71.69088267 148.3125 64.125 C122.21126777 53.23383835 100.51747567 57.54340475 69 57 C69 140.49 69 223.98 69 310 C46.23 310 23.46 310 0 310 C0 207.7 0 105.4 0 0 Z " fill="#9B3FCF" transform="translate(511,844)"/>
<path d="M0 0 C1.36106362 0.00028267 2.72212739 0.00012257 4.08319092 -0.0004425 C7.74778476 -0.00072735 11.41234532 0.00511849 15.07693148 0.01213145 C18.91793425 0.01841737 22.75893794 0.01897291 26.59994507 0.02015686 C33.85989263 0.02325481 41.11982498 0.03144734 48.37976587 0.04150635 C56.65069682 0.05271538 64.92162853 0.05818997 73.1925652 0.06320179 C90.19397953 0.07363136 107.19537294 0.09195758 124.19677734 0.11352539 C124.19677734 18.92352539 124.19677734 37.73352539 124.19677734 57.11352539 C111.39445312 57.15219727 111.39445312 57.15219727 98.33349609 57.19165039 C92.22526591 57.22003156 86.11708781 57.25090004 80.00889301 57.28534889 C72.10464228 57.32959711 64.20050528 57.36805735 56.29614258 57.38452148 C50.03587218 57.39757996 43.77584102 57.42465058 37.51570541 57.46813846 C34.20482001 57.49066001 30.89429035 57.50435074 27.58331871 57.50540924 C23.87557859 57.50778595 20.16876174 57.53492505 16.46118164 57.56762695 C14.83737076 57.56008141 14.83737076 57.56008141 13.18075562 57.55238342 C3.18653302 57.6880636 -5.80854329 60.04731599 -13.14306641 67.14086914 C-17.98748813 72.89718201 -19.49866707 78.89293353 -19.18603516 86.34399414 C-18.12535308 94.01770429 -14.78693046 101.09651067 -8.80322266 106.11352539 C-2.30441359 110.28257272 3.34438589 113.21334648 11.11956787 113.27174377 C12.10952255 113.28153259 13.09947723 113.29132141 14.11943054 113.30140686 C15.19908585 113.30716232 16.27874115 113.31291779 17.39111328 113.31884766 C19.10374107 113.33369705 19.10374107 113.33369705 20.85096741 113.34884644 C24.62767457 113.38045273 28.40439432 113.40521557 32.18115234 113.42993164 C34.79860767 113.45050191 37.41605968 113.4714984 40.0335083 113.49290466 C46.2205194 113.54278435 52.40755608 113.58774066 58.59461713 113.63092703 C66.33052782 113.68518788 74.06638501 113.74602249 81.80224609 113.80688477 C95.60038205 113.91541326 109.398567 114.0139987 123.19677734 114.11352539 C123.19677734 132.59352539 123.19677734 151.07352539 123.19677734 170.11352539 C110.50273438 170.15219727 110.50273438 170.15219727 97.55224609 170.19165039 C91.49537866 170.22003188 85.43856374 170.25090047 79.38173199 170.28534889 C71.54411956 170.32959563 63.70662182 170.36805653 55.86889648 170.38452148 C49.66136275 170.39758069 43.45407026 170.42465314 37.24667245 170.46813846 C33.963732 170.49065839 30.6811502 170.50435066 27.39812279 170.50540924 C23.72151275 170.50778623 20.04583346 170.53492752 16.36938477 170.56762695 C14.75959999 170.56008141 14.75959999 170.56008141 13.11729431 170.55238342 C1.42377366 170.71244722 -8.89778962 174.71144966 -17.51806641 182.70336914 C-27.35990365 193.34657736 -28.49046144 204.91776221 -27.97363281 218.72192383 C-27.30901256 228.04945957 -22.47817422 235.7626006 -15.80322266 242.11352539 C-5.94728318 249.09804943 2.16980931 251.40939087 14.07714844 251.43237305 C15.26796021 251.44241867 16.45877197 251.45246429 17.68566895 251.46281433 C20.93728434 251.48834373 24.18880504 251.50523689 27.44049025 251.51824236 C30.84380992 251.53391238 34.24704208 251.56069018 37.65029907 251.58627319 C44.08868909 251.63299264 50.52709569 251.66976971 56.96556818 251.70294607 C65.01795876 251.74497266 73.07025076 251.80032171 81.12255859 251.85571289 C95.48057734 251.95442189 109.83861931 252.03302819 124.19677734 252.11352539 C124.19677734 271.25352539 124.19677734 290.39352539 124.19677734 310.11352539 C94.72110737 310.19385273 94.72110737 310.19385273 80.03808498 310.21403313 C72.13433328 310.22506537 64.23062433 310.23901466 56.3269043 310.2644043 C50.06375129 310.28451402 43.80063072 310.2972829 37.53744632 310.30170238 C34.22970338 310.30428045 30.9220733 310.31131346 27.61435509 310.3249855 C-10.19659938 310.47490757 -10.19659938 310.47490757 -26.49072266 305.48852539 C-27.35882568 305.23055176 -28.22692871 304.97257812 -29.12133789 304.70678711 C-46.53083523 299.28680401 -61.65862532 289.6836211 -74.80322266 277.11352539 C-75.72361328 276.28788086 -75.72361328 276.28788086 -76.66259766 275.44555664 C-91.75025527 261.43064533 -101.27598179 239.9676185 -102.07666016 219.55883789 C-102.64849061 194.36641873 -96.18794937 174.33327839 -78.42822266 155.60961914 C-71.43047899 148.98194846 -63.4180817 144.33929748 -54.80322266 140.11352539 C-55.46966797 139.80801758 -56.13611328 139.50250977 -56.82275391 139.18774414 C-71.84445443 131.72941731 -81.81877843 118.96067746 -87.38745117 103.34350586 C-93.97183064 83.73469934 -95.0257466 66.04673067 -86.38134766 46.97680664 C-74.92061954 24.88717744 -54.7536837 10.62698144 -31.42822266 3.17602539 C-21.09502026 -0.03270588 -10.75290346 -0.03081803 0 0 Z " fill="#FD65C2" transform="translate(1625.80322265625,843.886474609375)"/>
<path d="M0 0 C8.641875 -0.0825 17.28375 -0.165 26.1875 -0.25 C28.86770264 -0.28641602 31.54790527 -0.32283203 34.30932617 -0.36035156 C63.9225972 -0.59502104 93.29420983 4.76358461 115.2890625 26.140625 C119.53030261 30.6140944 123.2360518 35.4721036 126 41 C126.42410156 40.3709375 126.84820312 39.741875 127.28515625 39.09375 C142.20459522 17.3212061 162.62595634 6.37406065 188.30445862 1.45526123 C196.83038621 0.01528175 205.3856604 -0.14078145 214.01171875 -0.09765625 C214.98355103 -0.09664917 215.9553833 -0.09564209 216.95666504 -0.09460449 C220.5336223 -0.08943326 224.11056253 -0.07547281 227.6875 -0.0625 C235.710625 -0.041875 243.73375 -0.02125 252 0 C252 18.81 252 37.62 252 57 C243.42 57.33 234.84 57.66 226 58 C210.07995178 61.28049479 197.34069924 66.19303967 185 77 C184.33613281 77.56976562 183.67226563 78.13953125 182.98828125 78.7265625 C172.07944573 88.79955405 162.94442474 104.38118278 161.82299805 119.36499023 C161.31760287 139.51837814 164.27167036 155.59048736 177.625 171.5234375 C192.26897217 186.79363217 211.05752431 194.06528576 232.01855469 194.61206055 C233.57993164 194.63695557 235.14130859 194.66185059 236.75 194.6875 C241.7825 194.790625 246.815 194.89375 252 195 C252 214.14 252 233.28 252 253 C244.3275 253.061875 236.655 253.12375 228.75 253.1875 C226.37393555 253.21481201 223.99787109 253.24212402 221.54980469 253.27026367 C192.10093604 253.46792325 164.92292887 248.70639001 142 229 C141.38769531 228.52046875 140.77539062 228.0409375 140.14453125 227.546875 C134.58550327 223.12000604 130.36822632 217.5667646 126 212 C125.54109375 212.59167969 125.0821875 213.18335938 124.609375 213.79296875 C123.99578125 214.58316406 123.3821875 215.37335938 122.75 216.1875 C122.14671875 216.96480469 121.5434375 217.74210937 120.921875 218.54296875 C119.97054687 219.75919922 119.97054687 219.75919922 119 221 C118.36320312 221.8353125 117.72640625 222.670625 117.0703125 223.53125 C101.09485737 242.58122668 75.32387488 250.24196502 51.55158997 252.79873657 C46.83840626 253.17050144 42.12738686 253.12154385 37.40234375 253.09765625 C35.9710614 253.09614563 35.9710614 253.09614563 34.51086426 253.09460449 C30.98639707 253.08941877 27.46194718 253.07545795 23.9375 253.0625 C16.038125 253.041875 8.13875 253.02125 0 253 C0 233.86 0 214.72 0 195 C15.25 194.6875 15.25 194.6875 19.98144531 194.61206055 C40.47886975 194.07737906 60.55677767 187.15354474 75 172 C80.67221795 165.22720245 84.7140533 158.17665806 88 150 C88.35320312 149.23429688 88.70640625 148.46859375 89.0703125 147.6796875 C94.25524422 132.73488432 91.83511251 113.15855242 85.1484375 99.20703125 C75.95950577 81.5480298 62.49780415 68.45035135 43.5234375 61.77734375 C36.31812698 59.50840285 29.73684799 57.91699531 22.16796875 57.68359375 C21.00289795 57.64548584 19.83782715 57.60737793 18.63745117 57.56811523 C17.16896729 57.52501221 15.7004834 57.48190918 14.1875 57.4375 C9.505625 57.293125 4.82375 57.14875 0 57 C0 38.19 0 19.38 0 0 Z " fill="#5B25D7" transform="translate(245,844)"/>
<path d="M0 0 C23.1 0 46.2 0 70 0 C70 64.35 70 128.7 70 195 C103 195 136 195 170 195 C170 214.14 170 233.28 170 253 C147.9824067 253.02254515 125.9648227 253.04097808 103.9472208 253.05181217 C93.72481944 253.0569756 83.50242574 253.0640192 73.2800293 253.07543945 C64.37357212 253.08538485 55.46712049 253.09185308 46.56065792 253.09408849 C41.84171197 253.09539585 37.1227819 253.09848324 32.40384102 253.10573006 C27.96753861 253.11248801 23.5312587 253.11461742 19.09495163 253.11310768 C17.46184988 253.11338411 15.82874742 253.11539057 14.1956501 253.11920547 C11.9757879 253.12413922 9.75601204 253.12299949 7.53614807 253.12025452 C6.29080575 253.12117631 5.04546343 253.1220981 3.76238346 253.12304783 C1 253 1 253 0 252 C-0.09636367 250.64993803 -0.12371954 249.2948713 -0.12304783 247.94137478 C-0.12503888 247.06156805 -0.12702993 246.18176131 -0.12908131 245.27529377 C-0.12616847 244.29768764 -0.12325563 243.32008151 -0.12025452 242.31285095 C-0.12110894 241.28294133 -0.12196337 240.25303171 -0.12284368 239.19191271 C-0.12450157 235.7124786 -0.11897208 232.23309184 -0.11352539 228.75366211 C-0.11324356 226.27078757 -0.11340117 223.78791294 -0.1139679 221.30503845 C-0.11419622 215.94498514 -0.11134478 210.5849468 -0.10573006 205.22489738 C-0.09761728 197.47508204 -0.09500007 189.72527258 -0.09374207 181.97545344 C-0.09155119 169.40314727 -0.08489016 156.83084758 -0.07543945 144.25854492 C-0.06626624 132.04272494 -0.05918496 119.82690671 -0.05493164 107.61108398 C-0.05466892 106.85862382 -0.05440619 106.10616366 -0.05413551 105.33090167 C-0.05283051 101.55618636 -0.05156679 97.78147104 -0.05032361 94.00675571 C-0.0399499 62.67116474 -0.02151101 31.3355858 0 0 Z " fill="#D254C5" transform="translate(784,844)"/>
<path d="M0 0 C1.04929687 0.32871094 2.09859375 0.65742187 3.1796875 0.99609375 C11.66996808 3.88278915 18.19431122 8.21271645 25 14 C25.74121094 14.62777344 26.48242188 15.25554688 27.24609375 15.90234375 C39.6111609 27.30327311 47.12663959 44.68848356 48.22119141 61.37133789 C48.34017454 65.14614104 48.37996246 68.91083066 48.375 72.6875 C48.37478851 73.35263611 48.37457703 74.01777222 48.37435913 74.70306396 C48.34229833 84.7950741 47.7093494 93.53811857 44 103 C43.63777344 104.04414062 43.27554687 105.08828125 42.90234375 106.1640625 C36.74820213 122.64464516 24.8011492 134.70469519 9 142 C-9.06365226 149.43849661 -31.97589836 151.79854754 -50.5 144.53515625 C-51.655 144.02855469 -52.81 143.52195312 -54 143 C-55.134375 142.50371094 -56.26875 142.00742188 -57.4375 141.49609375 C-73.250782 133.75728239 -85.21773315 120.18185145 -92 104 C-92.46664063 102.99066406 -92.93328125 101.98132813 -93.4140625 100.94140625 C-99.95662214 84.25605163 -100.02558254 59.901347 -93.484375 43.19921875 C-92.74960938 41.61560547 -92.74960938 41.61560547 -92 40 C-91.53078125 38.91332031 -91.0615625 37.82664062 -90.578125 36.70703125 C-87.5317912 30.11483041 -83.77933025 24.45455572 -79 19 C-78.46761719 18.38511719 -77.93523437 17.77023437 -77.38671875 17.13671875 C-58.9604597 -2.69679636 -25.1684814 -9.06212086 0 0 Z " fill="#000000" transform="translate(1124,898)"/>
<path d="M0 0 C6.57941751 5.33567129 10.82820532 12.53097091 11.79492188 20.96459961 C12.14826559 29.74504127 9.6815977 36.11532486 6.00390625 43.98828125 C5.41734348 45.28615867 4.83275941 46.58493188 4.25 47.88452148 C2.68556571 51.35793435 1.09370672 54.81807747 -0.50488281 58.27587891 C-2.17225926 61.89236092 -3.81716901 65.51904236 -5.46484375 69.14453125 C-7.81072327 74.30038724 -10.16727055 79.45114242 -12.53582764 84.59661865 C-15.48548308 91.00627838 -18.40257733 97.42831742 -21.26171875 103.87890625 C-21.5594519 104.54941513 -21.85718506 105.21992401 -22.16394043 105.91075134 C-23.56163549 109.05998557 -24.95339687 112.21149391 -26.3359375 115.36743164 C-30.80905077 125.46348898 -35.01113466 132.95169602 -44.99609375 138.30078125 C-53.5518441 141.03663165 -62.89684118 140.66870897 -70.99609375 136.86328125 C-79.09321054 132.1897776 -83.55221848 127.12147514 -87.6484375 118.7578125 C-90.09739539 109.13126373 -88.36546132 101.41692479 -84.12109375 92.67578125 C-83.11028266 90.48846348 -82.09989725 88.30094896 -81.08984375 86.11328125 C-80.51730204 84.89305316 -79.94436991 83.67300821 -79.37109375 82.453125 C-76.08647 75.43342483 -72.95336749 68.34397744 -69.78543091 61.27111816 C-68.23516215 57.81552996 -66.6768086 54.36361579 -65.11842346 50.91168213 C-61.92996571 43.84871251 -58.75833425 36.77901123 -55.625 29.69140625 C-55.0331468 28.35639812 -54.44119033 27.02143577 -53.84912109 25.68652344 C-52.77411156 23.2627389 -51.706521 20.83615011 -50.64306641 18.40722656 C-45.49037067 6.79497938 -41.33166255 -0.43842059 -29.55859375 -5.94921875 C-19.03747543 -8.09638575 -9.10974857 -5.74527179 0 0 Z " fill="#FD65C3" transform="translate(1024.49609375,1146.57421875)"/>
<path d="M0 0 C-0.65205656 4.01290529 -1.9044552 7.44372879 -3.50390625 11.17578125 C-3.99697266 12.33271484 -4.49003906 13.48964844 -4.99804688 14.68164062 C-5.51431641 15.87982422 -6.03058594 17.07800781 -6.5625 18.3125 C-7.0883279 19.54213081 -7.61372303 20.77194678 -8.13867188 22.00195312 C-9.42153664 25.00315052 -10.70878448 28.00238815 -12 31 C-13.54264526 30.9069458 -13.54264526 30.9069458 -15.11645508 30.81201172 C-24.37747981 30.33536421 -31.23816601 31.38225287 -39 37 C-45.01935247 42.69688716 -47.53861116 49.84750042 -48.4375 57.9375 C-48.05886304 66.20166323 -43.903714 73.41578111 -38 79 C-36.3380567 80.3392162 -34.67180572 81.67311599 -33 83 C-34.61614357 87.11979778 -36.25218996 91.23092674 -37.90722656 95.33520508 C-38.46747004 96.73273016 -39.02219822 98.13247933 -39.57128906 99.53442383 C-40.3612656 101.54857881 -41.17069229 103.55391857 -41.984375 105.55859375 C-42.46616211 106.76829834 -42.94794922 107.97800293 -43.44433594 109.22436523 C-45 112 -45 112 -47.03344727 112.97241211 C-53.41793653 113.06197726 -60.34987894 105.94091547 -64.75 101.8125 C-69.53524942 96.79570625 -72.83727533 91.13585821 -76 85 C-76.33902344 84.3503125 -76.67804688 83.700625 -77.02734375 83.03125 C-82.92311318 70.59440305 -83.27057948 53.00507954 -79.20605469 40.02197266 C-72.70635002 21.86491966 -61.20594654 9.38983654 -44 1 C-30.36095358 -4.94125128 -13.78784112 -6.89392056 0 0 Z " fill="#FC65C2" transform="translate(1128,916)"/>
<path d="M0 0 C1.12124268 0.49266357 2.24248535 0.98532715 3.39770508 1.49291992 C5.74786874 2.52680816 8.09525296 3.56703547 10.43994141 4.61328125 C13.94909823 6.1649918 17.47552203 7.66732507 21.01171875 9.15625 C23.23716572 10.10372861 25.46243286 11.05162974 27.6875 12 C28.71939453 12.43094971 29.75128906 12.86189941 30.81445312 13.3059082 C38.41065073 16.59495102 45.45527441 20.56381221 49.3359375 28.20703125 C50.94610726 33.00912577 50.91916726 37.71803219 49.15234375 42.46484375 C46.26886843 47.71374629 42.71709129 50.51309671 37 52.1875 C29.27610565 53.04647145 23.3383749 51.71258811 16.37890625 48.4609375 C15.07988625 47.88298935 15.07988625 47.88298935 13.75462341 47.29336548 C11.01494748 46.06863161 8.28910602 44.81601736 5.5625 43.5625 C3.73974568 42.74427935 1.91618226 41.92785863 0.09179688 41.11328125 C-4.95924733 38.84792298 -9.98681648 36.53538191 -15 34.1875 C-15.66112793 33.87809479 -16.32225586 33.56868958 -17.00341797 33.24990845 C-24.87051604 29.5375624 -29.9713989 26.41872009 -34.375 18.8125 C-35.73396217 13.10485887 -35.91308916 8.14367514 -33.0625 2.875 C-24.61193132 -9.05101382 -11.15861632 -5.0402181 0 0 Z " fill="#FC65C2" transform="translate(1024,1097.8125)"/>
<path d="M0 0 C28.771875 -0.12375 57.54375 -0.2475 87.1875 -0.375 C96.23696045 -0.42962402 105.2864209 -0.48424805 114.61010742 -0.54052734 C125.75061035 -0.56762695 125.75061035 -0.56762695 130.98335266 -0.57266235 C134.60015936 -0.57820145 138.21642547 -0.60047855 141.83308411 -0.63345337 C172.1578946 -0.89761442 199.3857867 0.54656439 223 22 C224.33804687 23.19882812 224.33804687 23.19882812 225.703125 24.421875 C242.126185 39.92744562 254.97164103 63.04702779 256 86 C256.09474609 87.57394531 256.09474609 87.57394531 256.19140625 89.1796875 C256.97710507 113.15617412 248.04794706 136.46724218 232.4375 154.5 C224.7429811 162.61904408 215.67121465 168.44292845 205 172 C206.23363281 172.70962891 206.23363281 172.70962891 207.4921875 173.43359375 C224.37277333 183.43329413 235.77449681 195.84604076 242.25 214.625 C243.79626246 221.58318108 244.14788728 228.53243383 244.11352539 235.64086914 C244.11367142 236.45172974 244.11381744 237.26259033 244.1139679 238.09802246 C244.11327842 240.74376218 244.10553182 243.38942902 244.09765625 246.03515625 C244.09578864 247.88317323 244.09436635 249.73119072 244.09336853 251.57920837 C244.0895704 256.4173624 244.0797635 261.25548588 244.06866455 266.09362793 C244.05658241 271.91243611 244.05203531 277.73125456 244.04621124 283.55007172 C244.03655006 292.36673565 244.01737465 301.18333271 244 310 C221.23 310 198.46 310 175 310 C174.96261719 304.43640625 174.92523437 298.8728125 174.88671875 293.140625 C174.85640728 289.59502238 174.82523869 286.04946803 174.79101562 282.50390625 C174.7368946 276.88853529 174.68577764 271.2732598 174.65356445 265.65771484 C174.62736451 261.12526928 174.58684697 256.59314834 174.53681374 252.06090546 C174.52025702 250.34039122 174.50867361 248.61982099 174.50238609 246.89923859 C174.44095114 231.61893308 173.42448889 217.04921698 162 205.6875 C152.71527003 198.14081218 141.36321511 197.40140443 129.82421875 197.390625 C128.10410583 197.36718018 128.10410583 197.36718018 126.34924316 197.34326172 C122.12886781 197.29127392 117.90813556 197.2725021 113.6875 197.25 C104.220625 197.1675 94.75375 197.085 85 197 C85 177.86 85 158.72 85 139 C91.95513672 138.96132813 91.95513672 138.96132813 99.05078125 138.921875 C102.00851689 138.89667419 104.96615352 138.87031669 107.92382812 138.83984375 C112.60652896 138.79170641 117.28900027 138.7475884 121.97192383 138.72900391 C125.75235403 138.7137309 129.53217902 138.67910096 133.31233788 138.63169098 C134.7461842 138.61698578 136.18011699 138.6089653 137.61403847 138.60811615 C150.08062962 138.59332462 160.04748189 136.59800038 169.70703125 128.3359375 C177.5919567 120.30325365 182.0449532 110.82018743 182.375 99.625 C182.06132298 88.39797662 178.84649567 78.31857296 171.11328125 69.9609375 C145.10382468 45.94434695 96.18316456 57.34409069 69 57 C69 121.68 69 186.36 69 253 C46.23 253 23.46 253 0 253 C0 169.51 0 86.02 0 0 Z " fill="#FD65C2" transform="translate(1770,844)"/>
</svg>
